<svg xmlns="http://www.w3.org/2000/svg" 
     viewBox="970.00 370.00 460.00 460.00" width="460.0" height="460.0">
    <path fill="#000000" fill-rule="evenodd" d="M 1162.50,429.07 L 1171.23,391.98 L 1228.77,391.98 L 1237.50,429.07 L 1294.35,452.61 L 1326.75,432.56 L 1367.44,473.25 L 1347.39,505.65 L 1370.93,562.50 L 1408.02,571.23 L 1408.02,628.77 L 1370.93,637.50 L 1347.39,694.35 L 1367.44,726.75 L 1326.75,767.44 L 1294.35,747.39 L 1237.50,770.93 L 1228.77,808.02 L 1171.23,808.02 L 1162.50,770.93 L 1105.65,747.39 L 1073.25,767.44 L 1032.56,726.75 L 1052.61,694.35 L 1029.07,637.50 L 991.98,628.77 L 991.98,571.23 L 1029.07,562.50 L 1052.61,505.65 L 1032.56,473.25 L 1073.25,432.56 L 1105.65,452.61 Z M 1200.00,460.00 L 1186.28,460.67 L 1172.69,462.69 L 1159.36,466.03 L 1146.42,470.66 L 1134.00,476.53 L 1122.22,483.59 L 1111.18,491.78 L 1101.01,501.01 L 1091.78,511.18 L 1083.59,522.22 L 1076.53,534.00 L 1070.66,546.42 L 1066.03,559.36 L 1062.69,572.69 L 1060.67,586.28 L 1060.00,600.00 L 1060.67,613.72 L 1062.69,627.31 L 1066.03,640.64 L 1070.66,653.58 L 1076.53,666.00 L 1083.59,677.78 L 1091.78,688.82 L 1101.01,698.99 L 1111.18,708.22 L 1122.22,716.41 L 1134.00,723.47 L 1146.42,729.34 L 1159.36,733.97 L 1172.69,737.31 L 1186.28,739.33 L 1200.00,740.00 L 1213.72,739.33 L 1227.31,737.31 L 1240.64,733.97 L 1253.58,729.34 L 1266.00,723.47 L 1277.78,716.41 L 1288.82,708.22 L 1298.99,698.99 L 1308.22,688.82 L 1316.41,677.78 L 1323.47,666.00 L 1329.34,653.58 L 1333.97,640.64 L 1337.31,627.31 L 1339.33,613.72 L 1340.00,600.00 L 1339.33,586.28 L 1337.31,572.69 L 1333.97,559.36 L 1329.34,546.42 L 1323.47,534.00 L 1316.41,522.22 L 1308.22,511.18 L 1298.99,501.01 L 1288.82,491.78 L 1277.78,483.59 L 1266.00,476.53 L 1253.58,470.66 L 1240.64,466.03 L 1227.31,462.69 L 1213.72,460.67 Z" />
</svg>